<mxfile host="app.diagrams.net" modified="2024-02-14T12:51:22.057Z" agent="Mozilla/5.0 (Macintosh; Intel Mac OS X 10_15_7) AppleWebKit/537.36 (KHTML, like Gecko) Chrome/116.0.0.0 Safari/537.36  SberBrowser/9.2.60.1" etag="Lyr2wA7Yd_Kwu62iI7Pa" version="23.1.4" type="github">
  <diagram name="Страница — 1" id="Df-Xu7TvbHRaGqDTtP_u">
    <mxGraphModel dx="1306" dy="805" grid="1" gridSize="10" guides="1" tooltips="1" connect="1" arrows="1" fold="1" page="1" pageScale="1" pageWidth="827" pageHeight="1169" math="0" shadow="0">
      <root>
        <mxCell id="0" />
        <mxCell id="1" parent="0" />
        <mxCell id="_kRzoSzDcluPedTYQxGS-1" value="Vertical Container" style="swimlane;whiteSpace=wrap;html=1;" vertex="1" parent="1">
          <mxGeometry x="310" y="310" width="200" height="200" as="geometry" />
        </mxCell>
      </root>
    </mxGraphModel>
  </diagram>
</mxfile>
